<?xml version="1.0" standalone="no"?>
<!DOCTYPE svg PUBLIC "-//W3C//DTD SVG 20010904//EN"
 "http://www.w3.org/TR/2001/REC-SVG-20010904/DTD/svg10.dtd">
<svg version="1.0" xmlns="http://www.w3.org/2000/svg"
 width="300.000000pt" height="300.000000pt" viewBox="0 0 300.000000 300.000000"
 preserveAspectRatio="xMidYMid meet">
<metadata>
Created by potrace 1.14, written by Peter Selinger 2001-2017
</metadata>
<g transform="translate(0.000000,300.000000) scale(0.100000,-0.100000)"
fill="#000000" stroke="none">
<path d="M1157 2877 c-4 -10 8 -33 30 -59 52 -62 103 -143 109 -176 8 -39 -20
-61 -87 -67 -107 -11 -169 -19 -219 -31 -51 -12 -60 -14 -82 -19 -51 -11 -187
-59 -248 -87 -231 -109 -384 -270 -454 -481 -60 -180 -31 -447 79 -742 36 -96
111 -265 118 -265 2 0 4 22 6 49 1 28 3 58 5 68 2 10 7 49 11 88 4 38 8 72 10
75 1 3 6 28 9 55 11 81 62 283 95 376 144 407 339 575 651 563 47 -2 96 -6
110 -8 14 -3 50 -11 80 -17 125 -26 324 -115 432 -193 65 -46 62 -38 60 -212
-1 -106 -23 -203 -57 -256 l-25 -37 -243 4 c-203 3 -251 7 -292 22 -56 21 -75
44 -59 71 13 20 113 90 242 168 50 31 92 58 92 60 0 1 -36 63 -80 136 -92 152
-84 148 -240 143 -185 -6 -279 -83 -285 -233 -3 -77 11 -135 53 -219 105 -212
283 -386 501 -490 52 -25 99 -46 105 -47 6 -2 44 -13 84 -26 62 -19 89 -22
165 -18 51 3 103 11 117 18 14 7 51 42 84 79 l58 66 -6 80 c-3 44 -8 91 -10
105 -3 14 -10 59 -16 100 -26 163 -81 366 -133 485 -60 137 -170 324 -250 425
-20 25 -33 48 -28 53 8 8 107 -26 322 -111 260 -102 450 -194 548 -263 86 -60
93 -34 28 105 -69 146 -152 238 -301 336 -128 85 -265 142 -426 180 -19 5
-156 40 -305 80 -312 82 -349 89 -358 67z"/>
<path d="M2602 1878 c1 -358 -147 -719 -402 -979 -158 -161 -279 -247 -432
-308 -378 -150 -809 -74 -1261 223 l-28 19 24 -65 c85 -234 261 -424 527 -570
108 -60 260 -105 340 -102 225 10 493 115 795 313 55 35 116 77 135 91 19 15
62 46 95 71 80 59 218 191 270 259 53 70 118 204 141 295 24 93 27 267 8 368
-27 143 -106 333 -189 455 l-23 34 0 -104z"/>
</g>
</svg>
